<svg id="Layer_1" data-name="Layer 1" xmlns="http://www.w3.org/2000/svg" viewBox="0 0 65 63.84"><defs><style>.cls-1{fill:#859d97;}.cls-2{fill:#fff;}</style></defs><ellipse class="cls-1" cx="32.5" cy="31.92" rx="32.5" ry="31.92"/><path class="cls-2" d="M50.39,35.28l-28.5.18c1,6.22,5.53,9.42,11.53,9.38A11.5,11.5,0,0,0,43.59,39.3l5.64,2.21c-3,6.1-9.24,9.44-16,9.48-10,.06-18.05-7.31-18.12-18.41S23,14.23,33,14.17s17.45,7.09,17.52,18.19C50.53,33.33,50.46,34.31,50.39,35.28ZM44,29.7c-.87-6-5.16-9.42-10.94-9.38s-10.1,3.21-11.11,9.52Z"/></svg>